<svg xmlns="http://www.w3.org/2000/svg" xmlns:xlink="http://www.w3.org/1999/xlink" width="500" zoomAndPan="magnify" viewBox="0 0 375 374.999991" height="500" preserveAspectRatio="xMidYMid meet" version="1.0"><defs><clipPath id="id1"><path d="M 237 22.136719 L 284 22.136719 L 284 85 L 237 85 Z M 237 22.136719 " clip-rule="nonzero"/></clipPath><clipPath id="id2"><path d="M 291 221 L 362.816406 221 L 362.816406 260 L 291 260 Z M 291 221 " clip-rule="nonzero"/></clipPath></defs><path fill="#bf0202" d="M 129.773438 264.757812 C 129.773438 264.757812 120.289062 308.570312 141.675781 327.472656 C 163.066406 346.371094 119.117188 352.632812 109.378906 345.128906 C 99.636719 337.625 105.277344 271.882812 74.125 269.941406 Z M 129.773438 264.757812 " fill-opacity="1" fill-rule="nonzero"/><path fill="#ff2768" d="M 28.78125 245.101562 C 45.339844 288.492188 66.605469 272.910156 66.605469 272.910156 C 74.808594 270.300781 87.863281 268.527344 102.835938 267.335938 C 147.953125 263.742188 210.503906 265.445312 210.503906 265.445312 L 152.894531 109.945312 C 152.894531 109.945312 104.3125 148.378906 66.925781 173.3125 C 54.773438 181.421875 43.800781 188.105469 36.070312 191.578125 C 36.101562 191.578125 12.179688 201.71875 28.78125 245.101562 Z M 28.78125 245.101562 " fill-opacity="1" fill-rule="nonzero"/><path fill="#ffe5e3" d="M 148.21875 162.996094 C 149.929688 174.886719 152.910156 186.445312 157.167969 197.675781 C 161.421875 208.90625 166.847656 219.535156 173.445312 229.570312 C 194.980469 261.90625 225.148438 279.222656 249.253906 270.003906 C 280.335938 258.117188 289.554688 206.617188 269.84375 154.96875 C 250.136719 103.324219 208.976562 71.101562 177.894531 82.988281 C 153.941406 92.15625 142.96875 124.851562 148.21875 162.996094 Z M 148.21875 162.996094 " fill-opacity="1" fill-rule="nonzero"/><path fill="#bf0202" d="M 148.3125 162.71875 C 148.3125 162.71875 195.164062 160.183594 202.925781 158.140625 L 217.671875 192.59375 C 210.492188 196.246094 174.429688 230.132812 174.429688 230.132812 L 173.402344 229.570312 C 166.808594 219.535156 161.382812 208.90625 157.125 197.675781 C 152.871094 186.445312 149.886719 174.886719 148.179688 162.996094 Z M 148.3125 162.71875 " fill-opacity="1" fill-rule="nonzero"/><path fill="#bf0202" d="M 28.78125 245.101562 C 42.507812 281.03125 59.480469 276.511719 64.875 273.90625 C 66.640625 273.027344 68.480469 272.339844 70.390625 271.851562 C 78.59375 269.800781 89.988281 268.363281 102.835938 267.335938 C 66.597656 231.734375 66.945312 173.3125 66.945312 173.3125 C 54.792969 181.421875 43.824219 188.105469 36.089844 191.578125 C 36.101562 191.578125 12.179688 201.71875 28.78125 245.101562 Z M 28.78125 245.101562 " fill-opacity="1" fill-rule="nonzero"/><path fill="#ff2768" d="M 202.914062 158.160156 C 202.410156 158.40625 201.921875 158.679688 201.445312 158.980469 C 200.972656 159.277344 200.515625 159.605469 200.074219 159.953125 C 199.632812 160.304688 199.210938 160.679688 198.804688 161.074219 C 198.402344 161.472656 198.019531 161.890625 197.660156 162.332031 C 197.296875 162.773438 196.960938 163.234375 196.644531 163.714844 C 196.328125 164.195312 196.035156 164.691406 195.765625 165.207031 C 195.5 165.722656 195.257812 166.25 195.039062 166.796875 C 194.824219 167.339844 194.632812 167.894531 194.46875 168.464844 C 194.304688 169.035156 194.167969 169.613281 194.058594 170.199219 C 193.949219 170.789062 193.867188 171.382812 193.8125 171.984375 C 193.761719 172.582031 193.734375 173.1875 193.738281 173.796875 C 193.738281 174.40625 193.769531 175.015625 193.828125 175.625 C 193.886719 176.234375 193.972656 176.84375 194.085938 177.449219 C 194.199219 178.054688 194.34375 178.65625 194.511719 179.25 C 194.679688 179.847656 194.875 180.433594 195.09375 181.015625 C 195.316406 181.59375 195.5625 182.164062 195.835938 182.722656 C 196.105469 183.28125 196.402344 183.824219 196.722656 184.355469 C 197.042969 184.890625 197.386719 185.40625 197.75 185.902344 C 198.117188 186.402344 198.5 186.886719 198.90625 187.347656 C 199.316406 187.8125 199.738281 188.253906 200.183594 188.675781 C 200.628906 189.097656 201.089844 189.496094 201.566406 189.875 C 202.042969 190.25 202.535156 190.601562 203.042969 190.929688 C 203.546875 191.257812 204.066406 191.558594 204.59375 191.835938 C 205.125 192.109375 205.664062 192.359375 206.210938 192.582031 C 206.761719 192.800781 207.316406 192.992188 207.878906 193.160156 C 208.441406 193.324219 209.007812 193.457031 209.578125 193.5625 C 210.144531 193.667969 210.71875 193.746094 211.289062 193.792969 C 211.863281 193.839844 212.433594 193.855469 213.003906 193.839844 C 213.574219 193.828125 214.136719 193.785156 214.699219 193.710938 C 215.261719 193.636719 215.816406 193.535156 216.363281 193.402344 C 216.910156 193.269531 217.445312 193.109375 217.976562 192.917969 C 218.503906 192.730469 219.019531 192.511719 219.523438 192.265625 C 220.027344 192.019531 220.515625 191.746094 220.992188 191.449219 C 221.464844 191.148438 221.921875 190.824219 222.363281 190.472656 C 222.804688 190.125 223.226562 189.75 223.628906 189.351562 C 224.035156 188.953125 224.417969 188.535156 224.777344 188.09375 C 225.140625 187.652344 225.476562 187.191406 225.792969 186.714844 C 226.109375 186.234375 226.402344 185.734375 226.667969 185.222656 C 226.9375 184.707031 227.179688 184.175781 227.398438 183.632812 C 227.613281 183.085938 227.804688 182.53125 227.96875 181.960938 C 228.132812 181.394531 228.269531 180.816406 228.378906 180.226562 C 228.488281 179.640625 228.570312 179.046875 228.621094 178.445312 C 228.675781 177.84375 228.703125 177.238281 228.699219 176.628906 C 228.699219 176.023438 228.667969 175.414062 228.609375 174.804688 C 228.550781 174.191406 228.464844 173.585938 228.351562 172.980469 C 228.234375 172.375 228.09375 171.773438 227.925781 171.175781 C 227.757812 170.582031 227.5625 169.992188 227.339844 169.414062 C 227.121094 168.832031 226.875 168.265625 226.601562 167.707031 C 226.328125 167.148438 226.035156 166.601562 225.714844 166.070312 C 225.394531 165.539062 225.050781 165.023438 224.6875 164.523438 C 224.320312 164.023438 223.933594 163.542969 223.527344 163.078125 C 223.121094 162.617188 222.695312 162.171875 222.253906 161.75 C 221.808594 161.328125 221.347656 160.929688 220.871094 160.554688 C 220.394531 160.175781 219.902344 159.824219 219.394531 159.496094 C 218.890625 159.167969 218.371094 158.867188 217.84375 158.59375 C 217.3125 158.316406 216.773438 158.066406 216.222656 157.847656 C 215.675781 157.625 215.121094 157.433594 214.558594 157.269531 C 213.996094 157.105469 213.429688 156.96875 212.859375 156.863281 C 212.289062 156.757812 211.71875 156.683594 211.148438 156.636719 C 210.574219 156.589844 210.003906 156.574219 209.433594 156.585938 C 208.863281 156.601562 208.296875 156.644531 207.738281 156.714844 C 207.175781 156.789062 206.621094 156.890625 206.074219 157.023438 C 205.527344 157.15625 204.992188 157.316406 204.460938 157.507812 C 203.933594 157.699219 203.417969 157.914062 202.914062 158.160156 Z M 202.914062 158.160156 " fill-opacity="1" fill-rule="nonzero"/><g clip-path="url(#id1)"><path fill="#ffe5e3" d="M 245.222656 85 C 245.699219 85 246.167969 84.953125 246.632812 84.867188 C 247.097656 84.777344 247.554688 84.648438 247.996094 84.476562 C 248.4375 84.304688 248.859375 84.09375 249.261719 83.84375 C 249.664062 83.597656 250.042969 83.3125 250.390625 82.992188 C 250.742188 82.671875 251.0625 82.324219 251.347656 81.945312 C 251.632812 81.566406 251.882812 81.167969 252.09375 80.742188 C 252.304688 80.316406 252.476562 79.878906 252.609375 79.421875 C 252.742188 78.964844 252.828125 78.5 252.875 78.03125 L 254.554688 60.34375 L 266.203125 62.929688 C 266.671875 63.035156 267.144531 63.113281 267.625 63.164062 C 268.101562 63.21875 268.578125 63.242188 269.058594 63.242188 C 269.539062 63.242188 270.019531 63.21875 270.496094 63.167969 C 270.972656 63.113281 271.449219 63.035156 271.917969 62.933594 C 272.386719 62.828125 272.847656 62.699219 273.300781 62.542969 C 273.757812 62.390625 274.203125 62.210938 274.636719 62.007812 C 275.074219 61.804688 275.496094 61.578125 275.90625 61.328125 C 276.316406 61.078125 276.714844 60.808594 277.09375 60.515625 C 277.476562 60.222656 277.839844 59.910156 278.1875 59.578125 C 278.535156 59.246094 278.859375 58.894531 279.167969 58.527344 C 279.480469 58.160156 279.765625 57.773438 280.03125 57.375 C 280.300781 56.976562 280.542969 56.5625 280.765625 56.136719 C 280.988281 55.707031 281.183594 55.269531 281.359375 54.824219 C 281.53125 54.375 281.683594 53.917969 281.804688 53.453125 C 281.929688 52.988281 282.027344 52.519531 282.101562 52.042969 C 282.175781 51.570312 282.222656 51.089844 282.242188 50.609375 L 283.011719 30.53125 C 283.03125 30.027344 283 29.523438 282.921875 29.023438 C 282.839844 28.523438 282.714844 28.039062 282.539062 27.5625 C 282.363281 27.089844 282.144531 26.636719 281.878906 26.203125 C 281.613281 25.773438 281.3125 25.371094 280.96875 25 C 280.625 24.628906 280.25 24.296875 279.839844 24 C 279.429688 23.703125 278.996094 23.449219 278.539062 23.238281 C 278.078125 23.023438 277.601562 22.859375 277.113281 22.742188 C 276.621094 22.625 276.121094 22.554688 275.617188 22.535156 C 275.113281 22.515625 274.609375 22.546875 274.113281 22.625 C 273.613281 22.707031 273.125 22.832031 272.652344 23.007812 C 272.179688 23.183594 271.726562 23.402344 271.296875 23.667969 C 270.863281 23.933594 270.464844 24.238281 270.09375 24.582031 C 269.722656 24.925781 269.386719 25.300781 269.09375 25.710938 C 268.796875 26.117188 268.539062 26.554688 268.328125 27.011719 C 268.117188 27.472656 267.953125 27.949219 267.835938 28.441406 C 267.71875 28.929688 267.648438 29.429688 267.628906 29.9375 L 266.964844 47.386719 L 255.449219 44.832031 C 254.996094 44.730469 254.539062 44.652344 254.078125 44.601562 C 253.617188 44.550781 253.152344 44.519531 252.691406 44.515625 C 252.226562 44.515625 251.761719 44.535156 251.300781 44.582031 C 250.839844 44.625 250.382812 44.695312 249.929688 44.789062 C 249.472656 44.882812 249.023438 45 248.582031 45.140625 C 248.140625 45.28125 247.707031 45.445312 247.285156 45.632812 C 246.859375 45.820312 246.445312 46.027344 246.042969 46.257812 C 245.640625 46.488281 245.25 46.742188 244.875 47.011719 C 244.5 47.285156 244.136719 47.574219 243.792969 47.882812 C 243.445312 48.195312 243.117188 48.523438 242.808594 48.867188 C 242.496094 49.210938 242.203125 49.570312 241.929688 49.945312 C 241.65625 50.320312 241.40625 50.710938 241.171875 51.113281 C 240.941406 51.515625 240.730469 51.925781 240.542969 52.351562 C 240.351562 52.777344 240.1875 53.207031 240.042969 53.652344 C 239.902344 54.09375 239.78125 54.539062 239.6875 54.996094 C 239.589844 55.449219 239.519531 55.90625 239.472656 56.371094 L 237.5625 76.542969 C 237.515625 77.042969 237.519531 77.546875 237.570312 78.050781 C 237.621094 78.554688 237.71875 79.046875 237.867188 79.53125 C 238.015625 80.011719 238.207031 80.476562 238.449219 80.921875 C 238.6875 81.367188 238.96875 81.785156 239.289062 82.175781 C 239.609375 82.5625 239.964844 82.917969 240.355469 83.238281 C 240.75 83.558594 241.167969 83.835938 241.613281 84.074219 C 242.058594 84.3125 242.523438 84.503906 243.007812 84.648438 C 243.492188 84.792969 243.984375 84.890625 244.484375 84.9375 Z M 245.222656 85 " fill-opacity="1" fill-rule="nonzero"/></g><path fill="#ffe5e3" d="M 296.339844 153.472656 C 297.519531 153.472656 298.640625 153.214844 299.703125 152.699219 C 300.765625 152.183594 301.660156 151.464844 302.390625 150.535156 L 313.375 136.574219 L 321.761719 145.0625 C 322.101562 145.40625 322.457031 145.730469 322.828125 146.03125 C 323.203125 146.335938 323.59375 146.617188 323.996094 146.878906 C 324.402344 147.140625 324.820312 147.378906 325.25 147.59375 C 325.679688 147.808594 326.121094 148 326.574219 148.167969 C 327.027344 148.332031 327.484375 148.476562 327.953125 148.589844 C 328.417969 148.707031 328.890625 148.796875 329.367188 148.863281 C 329.84375 148.925781 330.324219 148.964844 330.804688 148.976562 C 331.289062 148.988281 331.769531 148.976562 332.246094 148.933594 C 332.726562 148.894531 333.203125 148.828125 333.675781 148.734375 C 334.148438 148.640625 334.613281 148.523438 335.074219 148.378906 C 335.53125 148.234375 335.980469 148.066406 336.421875 147.871094 C 336.863281 147.679688 337.292969 147.460938 337.710938 147.21875 C 338.128906 146.980469 338.53125 146.71875 338.917969 146.433594 C 339.304688 146.148438 339.679688 145.84375 340.035156 145.515625 C 340.386719 145.191406 340.722656 144.847656 341.042969 144.484375 C 341.359375 144.121094 341.65625 143.742188 341.929688 143.347656 L 353.4375 126.925781 C 353.726562 126.511719 353.972656 126.070312 354.175781 125.609375 C 354.378906 125.144531 354.535156 124.667969 354.644531 124.175781 C 354.753906 123.679688 354.8125 123.179688 354.824219 122.675781 C 354.835938 122.171875 354.796875 121.667969 354.707031 121.171875 C 354.621094 120.671875 354.484375 120.1875 354.300781 119.71875 C 354.117188 119.246094 353.890625 118.796875 353.621094 118.371094 C 353.347656 117.945312 353.039062 117.550781 352.6875 117.183594 C 352.339844 116.820312 351.957031 116.492188 351.542969 116.203125 C 351.128906 115.910156 350.691406 115.664062 350.230469 115.460938 C 349.769531 115.257812 349.289062 115.101562 348.796875 114.992188 C 348.304688 114.882812 347.804688 114.824219 347.300781 114.8125 C 346.796875 114.800781 346.292969 114.839844 345.796875 114.929688 C 345.300781 115.015625 344.816406 115.152344 344.347656 115.335938 C 343.875 115.519531 343.425781 115.746094 343 116.019531 C 342.574219 116.289062 342.179688 116.601562 341.816406 116.949219 C 341.449219 117.300781 341.125 117.679688 340.835938 118.097656 L 330.847656 132.335938 L 322.550781 123.945312 C 322.222656 123.617188 321.878906 123.304688 321.519531 123.007812 C 321.15625 122.714844 320.78125 122.4375 320.390625 122.183594 C 320 121.929688 319.597656 121.695312 319.183594 121.480469 C 318.769531 121.269531 318.34375 121.078125 317.910156 120.914062 C 317.476562 120.746094 317.035156 120.601562 316.582031 120.480469 C 316.132812 120.359375 315.679688 120.265625 315.21875 120.191406 C 314.757812 120.121094 314.296875 120.074219 313.828125 120.050781 C 313.363281 120.027344 312.898438 120.027344 312.433594 120.054688 C 311.96875 120.082031 311.507812 120.132812 311.046875 120.207031 C 310.585938 120.285156 310.132812 120.382812 309.683594 120.507812 C 309.234375 120.628906 308.792969 120.777344 308.359375 120.949219 C 307.925781 121.117188 307.503906 121.3125 307.089844 121.527344 C 306.675781 121.742188 306.277344 121.976562 305.886719 122.234375 C 305.5 122.492188 305.125 122.773438 304.769531 123.070312 C 304.410156 123.367188 304.066406 123.683594 303.742188 124.015625 C 303.417969 124.351562 303.109375 124.699219 302.820312 125.066406 L 290.300781 141 C 289.855469 141.566406 289.496094 142.183594 289.222656 142.851562 C 288.949219 143.519531 288.773438 144.214844 288.695312 144.933594 C 288.617188 145.652344 288.640625 146.367188 288.761719 147.078125 C 288.886719 147.789062 289.105469 148.46875 289.421875 149.121094 C 289.738281 149.769531 290.136719 150.363281 290.617188 150.902344 C 291.101562 151.4375 291.648438 151.898438 292.257812 152.28125 C 292.871094 152.664062 293.523438 152.953125 294.21875 153.152344 C 294.910156 153.351562 295.621094 153.453125 296.339844 153.449219 Z M 296.339844 153.472656 " fill-opacity="1" fill-rule="nonzero"/><g clip-path="url(#id2)"><path fill="#ffe5e3" d="M 333.839844 259.226562 C 335.617188 259.226562 337.328125 258.886719 338.96875 258.199219 L 357.425781 250.40625 C 357.890625 250.210938 358.332031 249.972656 358.75 249.6875 C 359.167969 249.40625 359.554688 249.082031 359.90625 248.722656 C 360.261719 248.367188 360.578125 247.976562 360.855469 247.554688 C 361.132812 247.132812 361.367188 246.6875 361.558594 246.21875 C 361.75 245.75 361.890625 245.269531 361.988281 244.773438 C 362.082031 244.277344 362.128906 243.777344 362.125 243.273438 C 362.125 242.765625 362.070312 242.265625 361.972656 241.773438 C 361.871094 241.277344 361.722656 240.796875 361.527344 240.332031 C 361.332031 239.867188 361.09375 239.425781 360.808594 239.003906 C 360.527344 238.585938 360.207031 238.199219 359.847656 237.84375 C 359.492188 237.488281 359.101562 237.171875 358.679688 236.894531 C 358.257812 236.613281 357.816406 236.378906 357.347656 236.1875 C 356.882812 235.996094 356.402344 235.851562 355.90625 235.757812 C 355.410156 235.660156 354.910156 235.613281 354.40625 235.613281 C 353.902344 235.617188 353.402344 235.667969 352.90625 235.769531 C 352.414062 235.867188 351.933594 236.015625 351.46875 236.210938 L 335.398438 242.976562 L 332.847656 231.449219 C 332.746094 230.992188 332.621094 230.542969 332.472656 230.101562 C 332.320312 229.660156 332.152344 229.226562 331.957031 228.804688 C 331.761719 228.382812 331.546875 227.96875 331.308594 227.570312 C 331.070312 227.167969 330.8125 226.78125 330.53125 226.40625 C 330.253906 226.035156 329.957031 225.675781 329.636719 225.335938 C 329.320312 224.992188 328.988281 224.667969 328.636719 224.363281 C 328.285156 224.058594 327.917969 223.769531 327.539062 223.503906 C 327.15625 223.234375 326.761719 222.988281 326.355469 222.761719 C 325.949219 222.539062 325.53125 222.332031 325.101562 222.152344 C 324.671875 221.972656 324.234375 221.8125 323.789062 221.679688 C 323.34375 221.542969 322.890625 221.429688 322.433594 221.34375 C 321.976562 221.257812 321.515625 221.195312 321.050781 221.15625 C 320.589844 221.117188 320.125 221.105469 319.65625 221.113281 C 319.191406 221.125 318.730469 221.160156 318.265625 221.222656 C 317.804688 221.28125 317.347656 221.363281 316.894531 221.472656 C 316.441406 221.582031 315.996094 221.714844 315.558594 221.871094 L 296.484375 228.664062 C 295.992188 228.820312 295.515625 229.019531 295.0625 229.269531 C 294.609375 229.519531 294.183594 229.8125 293.789062 230.148438 C 293.394531 230.484375 293.039062 230.855469 292.71875 231.261719 C 292.398438 231.667969 292.121094 232.105469 291.890625 232.566406 C 291.660156 233.03125 291.476562 233.511719 291.339844 234.011719 C 291.207031 234.511719 291.121094 235.019531 291.089844 235.539062 C 291.058594 236.054688 291.078125 236.570312 291.148438 237.085938 C 291.21875 237.597656 291.34375 238.097656 291.515625 238.585938 C 291.6875 239.074219 291.90625 239.542969 292.175781 239.984375 C 292.441406 240.429688 292.75 240.84375 293.097656 241.222656 C 293.449219 241.605469 293.832031 241.949219 294.253906 242.253906 C 294.671875 242.558594 295.117188 242.816406 295.589844 243.03125 C 296.058594 243.246094 296.546875 243.410156 297.054688 243.523438 C 297.558594 243.640625 298.070312 243.703125 298.585938 243.714844 C 299.105469 243.726562 299.617188 243.6875 300.125 243.597656 C 300.636719 243.503906 301.132812 243.363281 301.613281 243.171875 L 318.335938 237.214844 L 320.921875 248.886719 C 321.082031 249.617188 321.304688 250.324219 321.585938 251.015625 C 321.867188 251.703125 322.203125 252.363281 322.597656 252.996094 C 322.988281 253.628906 323.433594 254.226562 323.925781 254.78125 C 324.417969 255.339844 324.957031 255.851562 325.535156 256.316406 C 326.117188 256.785156 326.730469 257.199219 327.382812 257.5625 C 328.03125 257.921875 328.707031 258.226562 329.410156 258.476562 C 330.113281 258.722656 330.828125 258.910156 331.5625 259.035156 C 332.296875 259.160156 333.035156 259.226562 333.777344 259.226562 Z M 333.839844 259.226562 " fill-opacity="1" fill-rule="nonzero"/></g></svg>